<?xml version="1.0" standalone="no"?>
<!DOCTYPE svg PUBLIC "-//W3C//DTD SVG 20010904//EN"
 "http://www.w3.org/TR/2001/REC-SVG-20010904/DTD/svg10.dtd">
<svg version="1.0" xmlns="http://www.w3.org/2000/svg"
 width="512.000000pt" height="512.000000pt" viewBox="0 0 512.000000 512.000000"
 preserveAspectRatio="xMidYMid meet">
<metadata>
Created by potrace 1.14, written by Peter Selinger 2001-2017
</metadata>
<g transform="translate(0.000000,512.000000) scale(0.100000,-0.100000)"
fill="#000000" stroke="none">
<path d="M0 2560 l0 -2560 2560 0 2560 0 0 2560 0 2560 -2560 0 -2560 0 0
-2560z m3024 1811 l449 -449 5 -57 5 -57 -449 -449 c-246 -246 -460 -453 -476
-460 -16 -7 -43 -8 -65 -4 -33 6 -92 61 -477 443 -264 264 -444 450 -453 471
-34 78 -43 66 450 559 l453 452 54 0 54 0 450 -449z m781 -791 c14 -5 224
-208 465 -449 466 -468 469 -471 449 -543 -6 -25 -125 -149 -457 -481 l-448
-447 -54 0 -54 0 -444 443 c-260 259 -450 456 -458 475 -34 77 -40 68 434 544
240 241 450 444 466 452 36 18 65 20 101 6z m-2482 -11 c31 -16 875 -858 893
-891 8 -15 14 -46 14 -70 l0 -42 -442 -444 c-244 -244 -455 -450 -470 -458
-34 -18 -72 -18 -106 0 -48 25 -900 888 -907 919 -18 70 -19 68 458 545 l453
452 42 0 c24 0 53 -5 65 -11z m1240 -1250 c31 -16 875 -858 893 -891 19 -36
18 -98 -3 -128 -9 -14 -210 -219 -448 -457 -460 -460 -456 -457 -532 -438 -31
7 -894 859 -919 907 -18 34 -18 72 0 106 17 31 883 897 906 905 27 10 81 7
103 -4z"/>
</g>
</svg>
